<?xml version="1.0" standalone="no"?>
<!DOCTYPE svg PUBLIC "-//W3C//DTD SVG 20010904//EN"
 "http://www.w3.org/TR/2001/REC-SVG-20010904/DTD/svg10.dtd">
<svg version="1.0" xmlns="http://www.w3.org/2000/svg"
 width="1896.000000pt" height="1896.000000pt" viewBox="0 0 1896.000000 1896.000000"
 preserveAspectRatio="xMidYMid meet">
<metadata>
Created by potrace 1.11, written by Peter Selinger 2001-2013
</metadata>
<g transform="translate(0.000000,1896.000000) scale(0.100000,-0.100000)"
fill="#000000" stroke="none">
<path d="M9360 17494 c-188 -35 -291 -77 -371 -151 -69 -64 -99 -128 -99 -214
l0 -66 -37 -7 c-70 -11 -81 -8 -88 22 -3 16 -18 43 -33 61 l-27 33 -63 -12
c-54 -11 -65 -17 -78 -43 -24 -46 -28 -163 -7 -222 l18 -49 65 -12 c76 -14 88
-8 117 62 18 44 18 44 68 44 28 0 55 -4 61 -8 11 -7 40 -390 30 -399 -2 -2
-35 -6 -72 -10 l-69 -5 -18 45 c-28 71 -40 77 -117 63 l-65 -12 -18 -49 c-21
-59 -17 -176 7 -222 13 -26 24 -32 78 -43 l63 -12 27 33 c15 18 30 46 34 62 6
29 7 29 58 23 28 -3 62 -6 76 -6 26 0 26 -1 36 -124 13 -148 22 -167 143 -301
110 -122 134 -173 139 -291 l4 -93 133 -130 c73 -72 137 -131 141 -130 5 0 61
58 124 129 l115 129 6 98 c7 129 23 162 147 301 116 130 128 155 138 310 7
102 7 102 33 102 14 0 49 3 77 6 51 6 52 6 58 -23 4 -16 19 -44 34 -62 l27
-33 63 12 c54 11 65 17 78 43 24 46 28 163 7 222 l-18 49 -65 12 c-77 14 -89
8 -117 -63 l-18 -45 -69 5 c-37 4 -70 8 -73 10 -9 10 20 392 31 399 6 4 34 8
61 8 50 0 50 0 68 -44 29 -70 41 -76 117 -62 l65 12 18 49 c21 59 17 176 -7
222 -13 26 -24 32 -78 43 l-63 12 -27 -33 c-15 -18 -30 -45 -33 -61 -7 -30
-18 -33 -86 -22 l-37 6 -4 77 c-5 93 -25 139 -90 203 -98 96 -254 148 -463
153 -71 2 -141 2 -155 -1z"/>
<path d="M9190 11249 c-401 -32 -737 -128 -970 -277 -76 -48 -191 -163 -240
-238 -51 -77 -105 -225 -127 -347 -20 -110 -22 -360 -4 -487 15 -111 52 -297
96 -490 53 -234 72 -379 57 -448 -19 -90 -80 -203 -217 -402 -174 -252 -246
-370 -326 -535 -148 -306 -215 -577 -226 -920 -12 -387 58 -673 232 -940 308
-475 909 -743 1785 -796 613 -37 1215 58 1626 256 500 241 780 635 845 1190
24 202 -2 556 -56 765 -85 331 -199 559 -490 980 -137 199 -198 312 -217 402
-15 69 4 214 57 448 87 380 108 524 108 730 1 182 -16 293 -67 435 -43 121
-96 202 -189 292 -105 102 -216 169 -398 239 -313 121 -831 179 -1279 143z
m455 -1775 c33 -8 96 -32 140 -53 241 -117 385 -350 385 -620 0 -121 -19 -203
-72 -311 -34 -69 -59 -102 -133 -175 -103 -103 -187 -152 -319 -185 -158 -40
-332 -19 -486 57 -111 55 -241 188 -298 303 -53 108 -72 190 -72 311 -1 451
415 779 855 673z"/>
<path d="M12472 5089 c-52 -15 -107 -78 -122 -138 -32 -134 53 -252 183 -253
107 -1 186 71 195 178 12 151 -112 254 -256 213z"/>
<path d="M16879 4956 c-22 -72 -52 -166 -66 -209 -14 -43 -21 -82 -17 -86 11
-10 241 -57 248 -51 8 9 184 395 181 398 -2 2 -71 21 -154 42 l-151 38 -41
-132z"/>
<path d="M5997 4954 c-4 -4 -7 -466 -7 -1026 l0 -1018 240 0 240 0 0 96 0 96
63 -58 c118 -111 234 -149 427 -141 201 8 323 61 450 193 79 83 138 193 171
319 33 123 31 345 -4 477 -38 145 -85 227 -186 328 -143 142 -289 196 -500
187 -169 -7 -270 -48 -372 -152 l-44 -45 -5 373 -5 372 -231 3 c-127 1 -233
-1 -237 -4z m915 -930 c188 -61 275 -354 168 -570 -57 -117 -159 -179 -290
-177 -190 2 -320 158 -320 382 0 123 37 225 107 294 89 90 201 114 335 71z"/>
<path d="M14790 4535 l0 -205 -105 0 -105 0 0 -155 0 -154 103 -3 102 -3 5
-395 c5 -383 6 -397 28 -453 49 -119 154 -214 284 -253 92 -28 285 -26 391 4
102 29 177 67 176 90 0 9 -19 82 -43 162 -31 105 -46 144 -57 143 -8 -2 -51
-12 -95 -24 -74 -20 -86 -20 -125 -8 -36 12 -48 22 -66 59 -22 43 -23 52 -23
362 l0 318 195 0 195 0 0 155 0 155 -195 0 -195 0 0 205 0 205 -235 0 -235 0
0 -205z"/>
<path d="M625 4476 c-173 -34 -280 -91 -400 -211 -103 -103 -148 -179 -191
-320 -24 -80 -27 -107 -28 -245 -1 -182 12 -246 79 -385 87 -181 228 -303 426
-370 204 -70 492 -53 684 40 82 39 187 118 229 171 l29 36 -93 93 -93 94 -50
-45 c-54 -48 -164 -105 -237 -122 -206 -49 -385 -7 -505 119 -213 224 -168
644 86 796 72 43 155 63 259 63 148 0 279 -46 383 -132 27 -23 52 -37 57 -32
53 57 170 202 170 211 0 22 -133 124 -215 163 -44 22 -118 49 -165 60 -111 27
-326 35 -425 16z"/>
<path d="M2162 4459 c-132 -13 -237 -44 -379 -114 -73 -36 -133 -69 -133 -74
0 -5 30 -59 66 -121 l65 -111 32 21 c153 100 343 150 500 130 184 -23 287
-128 287 -291 l0 -57 -307 -4 c-251 -4 -319 -8 -368 -22 -214 -60 -341 -191
-364 -371 -25 -204 64 -384 237 -478 117 -64 314 -85 480 -52 94 19 222 80
281 135 24 22 45 40 47 40 2 0 4 -41 4 -90 l0 -90 163 2 162 3 -3 545 c-4 595
-6 619 -63 731 -76 152 -232 244 -453 268 -105 12 -132 12 -254 0z m438 -951
c0 -109 -17 -155 -79 -217 -148 -148 -471 -173 -593 -44 -75 78 -78 215 -7
280 63 58 141 70 452 72 l227 1 0 -92z"/>
<path d="M3961 4460 c-99 -14 -191 -45 -256 -88 -62 -40 -144 -124 -173 -176
-17 -30 -17 -28 -20 117 l-3 147 -162 -2 -162 -3 -3 -772 -2 -773 164 0 165 0
3 438 c4 412 5 441 25 499 30 89 64 143 128 201 148 136 406 141 537 10 20
-20 45 -52 54 -70 41 -80 44 -115 44 -605 l0 -473 170 0 170 0 0 426 c0 356 3
436 16 487 53 207 205 328 409 328 163 0 269 -65 332 -206 16 -36 18 -87 23
-535 l5 -495 168 -3 168 -2 -4 552 c-4 605 -2 588 -66 724 -20 43 -52 87 -93
128 -107 106 -228 150 -413 149 -127 0 -218 -19 -314 -65 -87 -41 -186 -141
-231 -232 l-33 -66 -21 53 c-60 146 -181 250 -340 291 -74 20 -206 27 -285 16z"/>
<path d="M11360 4461 c-69 -10 -164 -37 -210 -61 -62 -32 -154 -106 -190 -155
l-35 -47 -5 129 -5 128 -165 0 -165 0 -3 -1052 -2 -1053 170 0 170 0 0 411 0
411 40 -51 c71 -89 187 -163 311 -197 88 -25 298 -25 389 -1 246 65 428 247
502 503 20 69 23 101 23 254 0 203 -10 250 -82 400 -39 81 -59 108 -133 181
-70 70 -103 95 -171 127 -46 22 -113 47 -149 56 -81 19 -218 27 -290 17z m187
-301 c166 -58 274 -197 304 -392 36 -230 -73 -449 -269 -541 -58 -27 -81 -32
-166 -35 -206 -9 -354 73 -440 245 -82 163 -71 395 25 544 112 174 343 250
546 179z"/>
<path d="M13812 4460 c-187 -26 -326 -104 -410 -230 l-41 -61 -3 143 -3 143
-165 0 -165 0 -3 -772 -2 -773 170 0 169 0 3 453 c3 446 3 453 26 509 70 174
198 266 384 276 167 9 291 -56 355 -186 l28 -57 5 -495 5 -495 168 -3 168 -2
-3 552 -3 553 -28 81 c-78 233 -243 353 -507 368 -47 2 -113 1 -148 -4z"/>
<path d="M12377 4453 c-4 -3 -7 -352 -7 -775 l0 -768 165 0 165 0 0 775 0 775
-158 0 c-87 0 -162 -3 -165 -7z"/>
<path d="M10325 4413 c-144 -19 -264 -88 -367 -213 l-38 -45 0 123 0 122 -235
0 -235 0 0 -745 0 -745 235 0 235 0 0 384 c0 356 1 389 20 449 47 152 199 247
395 247 l65 0 0 215 0 215 -22 -1 c-13 -1 -36 -4 -53 -6z"/>
<path d="M18325 4413 c-55 -7 -138 -34 -198 -65 -57 -28 -155 -116 -190 -168
-15 -24 -16 -20 -16 98 l-1 122 -235 0 -235 0 0 -745 0 -745 235 0 235 0 0
390 c0 472 6 510 96 609 67 75 206 107 308 72 55 -19 110 -72 137 -134 24 -52
24 -54 27 -494 l3 -443 235 0 235 0 -3 538 -3 537 -28 78 c-34 98 -80 170
-143 226 -111 99 -289 147 -459 124z"/>
<path d="M16367 4400 c-314 -56 -527 -241 -609 -527 -32 -112 -32 -324 0 -436
83 -289 302 -477 616 -527 111 -18 341 -8 435 19 265 77 447 258 518 511 28
102 25 339 -5 445 -34 120 -92 217 -182 307 -65 64 -95 85 -182 126 -145 70
-204 84 -388 88 -85 1 -177 -1 -203 -6z m309 -394 c133 -62 202 -201 192 -391
-4 -76 -11 -105 -35 -157 -58 -123 -138 -179 -269 -186 -105 -6 -166 14 -233
74 -161 145 -161 463 0 608 63 56 113 74 214 75 64 1 90 -4 131 -23z"/>
<path d="M7740 3888 c0 -571 3 -598 65 -724 42 -87 135 -178 221 -219 88 -41
210 -60 315 -47 159 19 274 79 359 185 l45 56 3 -115 3 -114 239 0 240 0 0
745 0 745 -237 -2 -238 -3 -5 -425 -5 -425 -26 -55 c-35 -74 -72 -116 -129
-145 -104 -53 -223 -39 -291 32 -77 80 -73 56 -79 563 l-5 455 -237 3 -238 2
0 -512z"/>
<path d="M14685 2245 c-63 -58 -67 -65 -44 -65 16 0 51 20 93 53 59 46 64 53
49 65 -9 6 -19 12 -22 12 -3 -1 -37 -30 -76 -65z"/>
<path d="M3112 2051 c-267 -99 -334 -430 -127 -620 77 -70 146 -95 261 -96 85
0 95 2 168 38 77 39 98 59 78 79 -7 7 -22 2 -48 -16 -61 -40 -123 -58 -199
-58 -97 -1 -171 29 -239 95 -133 130 -129 339 8 465 71 66 125 86 226 87 92 0
148 -17 206 -61 28 -20 34 -22 44 -9 18 22 -7 46 -83 81 -83 38 -215 44 -295
15z"/>
<path d="M3962 1798 l3 -273 27 -50 c14 -27 37 -60 50 -72 67 -63 215 -90 322
-59 72 21 135 77 167 149 23 50 24 64 27 315 l3 262 -25 0 -25 0 -3 -268 -3
-269 -30 -49 c-77 -127 -304 -148 -407 -38 -58 62 -62 86 -66 367 -3 249 -4
257 -23 257 -20 0 -20 -6 -17 -272z"/>
<path d="M5276 2062 c-12 -20 -326 -717 -326 -724 0 -4 9 -8 20 -8 17 0 31 22
70 105 l49 105 216 0 216 0 49 -105 c43 -92 52 -105 74 -105 23 0 20 9 -96
263 -66 144 -142 309 -168 367 -41 89 -51 105 -73 108 -14 2 -28 -1 -31 -6z
m129 -264 l93 -203 -94 -3 c-51 -1 -138 -1 -192 0 l-100 3 69 155 c113 251
119 263 125 258 3 -4 47 -98 99 -210z"/>
<path d="M5910 2050 c0 -19 7 -20 125 -20 l125 0 0 -350 0 -350 25 0 25 0 0
350 0 350 125 0 c118 0 125 1 125 20 0 20 -7 20 -275 20 -268 0 -275 0 -275
-20z"/>
<path d="M6890 1700 c0 -363 0 -370 20 -370 19 0 20 7 20 125 l0 125 143 0
142 -1 85 -124 c75 -110 88 -125 114 -125 l28 0 -24 33 c-35 47 -144 200 -152
214 -4 8 6 18 31 28 89 37 137 115 137 221 1 97 -30 157 -102 200 -66 40 -92
44 -284 44 l-158 0 0 -370z m339 319 c57 -12 104 -41 135 -82 32 -44 34 -159
4 -212 -48 -82 -118 -105 -313 -105 l-125 0 0 205 0 205 125 0 c68 0 147 -5
174 -11z"/>
<path d="M8133 2056 c-108 -35 -206 -125 -244 -224 -28 -74 -29 -187 -3 -254
126 -314 563 -332 711 -30 25 50 28 68 28 152 0 87 -3 101 -32 161 -39 79
-102 140 -181 177 -69 32 -210 41 -279 18z m205 -40 c194 -50 298 -263 217
-444 -97 -216 -384 -263 -552 -90 -64 66 -88 127 -87 223 0 66 5 89 26 131 37
70 72 110 126 141 86 51 176 64 270 39z"/>
<path d="M9586 2058 c5 -7 70 -112 146 -232 l138 -219 0 -139 0 -138 25 0 25
0 0 137 0 136 112 181 c61 100 127 205 145 234 l34 52 -25 0 c-21 0 -44 -30
-156 -205 -73 -113 -133 -205 -135 -205 -1 0 -62 92 -135 205 -113 176 -135
205 -157 205 -17 0 -22 -4 -17 -12z"/>
<path d="M11230 1700 l0 -370 25 0 25 0 0 165 0 165 178 2 c169 3 177 4 177
23 0 19 -8 20 -177 23 l-178 2 0 160 0 160 200 0 c193 0 200 1 200 20 0 19 -7
20 -225 20 l-225 0 0 -370z"/>
<path d="M12282 2050 c-267 -96 -335 -428 -127 -619 77 -70 146 -95 260 -95
114 0 183 25 260 95 255 234 89 640 -262 639 -51 -1 -97 -7 -131 -20z m274
-54 c119 -54 184 -148 192 -276 6 -103 -21 -172 -93 -245 -178 -177 -481 -107
-562 131 -21 63 -14 175 16 232 85 166 279 235 447 158z"/>
<path d="M13432 2050 c-68 -24 -145 -81 -182 -135 -50 -73 -65 -122 -65 -215
0 -72 4 -94 29 -147 35 -76 113 -154 191 -189 116 -53 281 -38 383 36 l43 31
-3 132 c-3 115 -5 132 -20 135 -16 3 -18 -10 -20 -125 l-3 -128 -52 -28 c-170
-91 -377 -32 -468 135 -37 68 -46 180 -20 257 22 67 99 152 169 186 104 51
248 42 341 -20 37 -26 65 -27 65 -3 0 18 -63 57 -128 79 -73 25 -189 25 -260
-1z"/>
<path d="M14543 2056 c-247 -80 -346 -366 -198 -568 170 -232 535 -199 662 60
25 50 28 68 28 152 0 88 -3 101 -33 162 -38 78 -101 139 -182 176 -67 32 -208
41 -277 18z m263 -61 c70 -34 147 -119 170 -187 63 -191 -57 -390 -258 -427
-193 -35 -378 104 -395 298 -14 149 101 304 251 340 67 16 172 5 232 -24z"/>
<path d="M15510 1700 c0 -363 0 -370 20 -370 19 0 20 8 22 335 l3 335 245
-335 c218 -298 248 -334 273 -335 l27 0 0 370 0 370 -25 0 -25 0 -2 -329 -3
-328 -240 328 c-213 291 -243 328 -267 329 l-28 0 0 -370z"/>
</g>
</svg>
